<svg id="_5-insert_card" data-name="5-insert card" xmlns="http://www.w3.org/2000/svg" width="283.217" height="300" viewBox="0 0 283.217 300">
  <g id="color" transform="translate(4 3.999)">
    <path id="Trazado_303" data-name="Trazado 303" d="M204.712,13.851a8.877,8.877,0,0,1-8.851,8.851H18.851a8.851,8.851,0,0,1,0-17.7h177.01a8.877,8.877,0,0,1,8.851,8.851Z" transform="translate(30.252 13.127)" fill="#707070"/>
    <path id="Trazado_304" data-name="Trazado 304" d="M204.712,13.851H10A8.877,8.877,0,0,1,18.851,5h177.01a8.877,8.877,0,0,1,8.851,8.851Z" transform="translate(30.252 13.127)" fill="#b3b2b2"/>
    <path id="Trazado_307" data-name="Trazado 307" d="M40,5V31.552a13.276,13.276,0,0,0,26.552,0V5Z" transform="translate(133.01 13.127)" fill="#f28907"/>
    <path id="Trazado_308" data-name="Trazado 308" d="M58.7,5V31.552a8.851,8.851,0,0,1-17.7,0V5Z" transform="translate(136.435 13.127)" fill="#e7e5e0"/>
    <path id="Trazado_309" data-name="Trazado 309" d="M49.851,5V40.4A8.877,8.877,0,0,1,41,31.552V5Z" transform="translate(136.435 13.127)" fill="#c8c2b5"/>
    <path id="Trazado_347" data-name="Trazado 347" d="M0,0H26V146H0Z" transform="translate(89 18)" fill="#0f1fa5"/>
    <rect id="Rectángulo_359" data-name="Rectángulo 359" width="13" height="146" transform="translate(89 18)" fill="#b3b2b2"/>
  </g>
  <g id="line">
    <path id="Trazado_312" data-name="Trazado 312" d="M122.931,201.01a4.425,4.425,0,0,1-4.425-4.425v-53.1c0-31.72-19.852-57.528-44.253-57.528-9.762,0-17.7-9.926-17.7-22.126V41.7a8.851,8.851,0,0,0-17.7,0V85.954c0,12.869,5.133,21.958,15.254,26.994a4.427,4.427,0,1,1-3.956,7.921C40.957,116.293,30,106.5,30,85.954V41.7a17.7,17.7,0,0,1,35.4,0V63.827c0,7.2,4.054,13.276,8.851,13.276,29.282,0,53.1,29.778,53.1,66.379v53.1A4.425,4.425,0,0,1,122.931,201.01Z" transform="translate(102.758 98.99)" fill="#fff"/>
    <path id="Trazado_313" data-name="Trazado 313" d="M85.954,156.482a4.425,4.425,0,0,1-4.425-4.425V138.781a26.946,26.946,0,0,0-.624-5.7,29.366,29.366,0,0,0-10.085-16.431,49.665,49.665,0,0,0-9.328-5.487,78.02,78.02,0,0,1-7.965-4.372A65.494,65.494,0,0,1,37.471,92.316,66.627,66.627,0,0,1,24,54.958V41.425a4.425,4.425,0,1,1,8.851,0V54.7a57.7,57.7,0,0,0,11.6,32.194,56.865,56.865,0,0,0,13.9,12.5,69.921,69.921,0,0,0,7.08,3.854,56.916,56.916,0,0,1,10.984,6.558,38.225,38.225,0,0,1,13.13,21.4,35.43,35.43,0,0,1,.832,7.576v13.276A4.425,4.425,0,0,1,85.954,156.482Z" transform="translate(82.206 143.518)" fill="#fff"/>
    <path id="Trazado_314" data-name="Trazado 314" d="M48.425,155.459H44v-8.851h4.425A13.276,13.276,0,0,0,61.7,133.333V5h8.851V133.333A22.153,22.153,0,0,1,48.425,155.459Z" transform="translate(150.712 17.126)" fill="#fff"/>
    <path id="Trazado_315" data-name="Trazado 315" d="M89.229,155.459h-53.1A22.153,22.153,0,0,1,14,133.333V5h8.851V133.333a13.276,13.276,0,0,0,13.276,13.276h53.1Z" transform="translate(47.954 17.126)" fill="#fff"/>
    <path id="Trazado_316" data-name="Trazado 316" d="M199.286,30.552H186.01a4.425,4.425,0,0,1,0-8.851h13.276a4.425,4.425,0,1,0,0-8.851H22.276a4.425,4.425,0,1,0,0,8.851H35.552a4.425,4.425,0,0,1,0,8.851H22.276A13.276,13.276,0,1,1,22.276,4h177.01a13.276,13.276,0,1,1,0,26.552Z" transform="translate(30.827 13.701)" fill="#fff"/>
    <path id="Trazado_317" data-name="Trazado 317" d="M278.792,61.954H216.838a4.425,4.425,0,0,1,0-8.851h57.528V8.851H8.851V53.1H66.379a4.425,4.425,0,0,1,0,8.851H4.425A4.425,4.425,0,0,1,0,57.528V4.425A4.425,4.425,0,0,1,4.425,0H278.792a4.425,4.425,0,0,1,4.425,4.425v53.1A4.425,4.425,0,0,1,278.792,61.954Z" fill="#fff"/>
    <path id="Trazado_318" data-name="Trazado 318" d="M53.276,48.253A13.276,13.276,0,0,1,40,34.977V8.425a4.425,4.425,0,1,1,8.851,0V34.977a4.425,4.425,0,0,0,8.851,0V8.425a4.425,4.425,0,1,1,8.851,0V34.977A13.276,13.276,0,0,1,53.276,48.253Z" transform="translate(137.01 13.701)" fill="#fff"/>
    <rect id="Rectángulo_360" data-name="Rectángulo 360" width="8" height="146" transform="translate(89 22)" fill="#fff"/>
    <rect id="Rectángulo_361" data-name="Rectángulo 361" width="9" height="146" transform="translate(115 22)" fill="#fff"/>
  </g>
</svg>
