<svg xmlns="http://www.w3.org/2000/svg" width="279.609" height="311" viewBox="0 0 279.609 311">
  <g id="Paper_Bill" data-name="Paper Bill" transform="translate(-3.05 5.63)">
    <path id="Trazado_319" data-name="Trazado 319" d="M234.306-.13H42.81c21.262,0,38.5,17.968,38.506,40.137V278.836a5.266,5.266,0,0,0,1.124,3.2l12.9,16.875a2.367,2.367,0,0,0,3.8,0L111.3,283.1a2.377,2.377,0,0,1,3.8,0l12.172,15.82a2.377,2.377,0,0,0,3.8,0l12.161-15.82a2.377,2.377,0,0,1,3.8,0l12.172,15.82a2.377,2.377,0,0,0,3.8,0l12.161-15.82a2.377,2.377,0,0,1,3.8,0l12.172,15.82a2.377,2.377,0,0,0,3.8,0L207.1,283.1a2.388,2.388,0,0,1,3.81,0l12.161,15.82a2.377,2.377,0,0,0,3.8,0l12.161-15.82a2.388,2.388,0,0,1,3.81,0L255,298.922a2.377,2.377,0,0,0,3.8,0l12.993-16.887a5.278,5.278,0,0,0,1.124-3.2V40.007a41.043,41.043,0,0,0-11.321-28.416A37.73,37.73,0,0,0,234.306-.13Z" transform="translate(4.246 0)" fill="none" stroke="#fff" stroke-width="11"/>
    <path id="Trazado_320" data-name="Trazado 320" d="M85.562,38.376A38.506,38.506,0,0,0,47.056-.13h0A38.506,38.506,0,0,0,8.55,38.376V85.435a5.743,5.743,0,0,0,1.124,3.372L20.913,103.89a3.169,3.169,0,0,0,5.024,0L36.5,90.4a3.169,3.169,0,0,1,4.979,0l10.632,13.566a3.158,3.158,0,0,0,4.979,0l10.6-13.487a3.158,3.158,0,0,1,5,0l12.869,16.735Z" transform="translate(0 0)" fill="none" stroke="#fff" stroke-width="11"/>
    <path id="Trazado_321" data-name="Trazado 321" d="M218.731,223.13v-2.754a28.75,28.75,0,0,1-13.2-4.765,3.8,3.8,0,0,1-.787-5.62h0a3.788,3.788,0,0,1,5.058-.7,21.658,21.658,0,0,0,8.924,3.743V200q-7.6-1.821-11.127-4.777c-2.349-1.967-3.529-4.9-3.529-8.778a12.228,12.228,0,0,1,4.069-9.508,16.409,16.409,0,0,1,10.587-4.035v-1.214a2.158,2.158,0,0,1,2.158-2.158h0a2.158,2.158,0,0,1,2.147,2.158v1.281a27.177,27.177,0,0,1,10.464,2.945,3.585,3.585,0,0,1,1.281,5.271l-.18.259a3.63,3.63,0,0,1-4.676,1.124,21.355,21.355,0,0,0-6.89-2.248v12.644h.2q7.744,1.8,11.363,4.9c2.428,2.068,3.63,5.058,3.63,8.991a12.2,12.2,0,0,1-4.17,9.587,17.354,17.354,0,0,1-11.026,4.035v2.686a2.158,2.158,0,0,1-2.147,2.158h0a2.158,2.158,0,0,1-2.158-2.192Zm-4.743-41.26a4.855,4.855,0,0,0-1.708,3.765,4.8,4.8,0,0,0,1.338,3.574,13.9,13.9,0,0,0,5.114,2.518V180.095a8.137,8.137,0,0,0-4.743,1.776Zm14.162,29.492a5.2,5.2,0,0,0,.4-7.632,14.465,14.465,0,0,0-5.519-2.585v12.1a9.4,9.4,0,0,0,5.114-1.888Z" transform="translate(24.204 33.301)" fill="#0830a8" stroke="#fff" stroke-width="2"/>
    <path id="Trazado_322" data-name="Trazado 322" d="M201.46,49.056H104.6a6.519,6.519,0,0,1-6.519-6.508h0A6.519,6.519,0,0,1,104.6,36.03H201.46a6.519,6.519,0,0,1,6.519,6.519h0A6.519,6.519,0,0,1,201.46,49.056Z" transform="translate(11.096 4.481)" fill="#939598"/>
    <path id="Trazado_323" data-name="Trazado 323" d="M161.189,75.71H104.6c-3.6,0-6.519-1.568-6.519-3.5h0c.006-1.932,2.923-3.5,6.519-3.5h56.59c3.583.01,6.479,1.572,6.485,3.5h0c0,1.928-2.9,3.493-6.485,3.5Z" transform="translate(11.096 11.989)" fill="#939598"/>
    <path id="Trazado_324" data-name="Trazado 324" d="M230.938,75.71h-15.33A9.984,9.984,0,0,1,211,74.684a3.035,3.035,0,0,1-1.9-2.477h0c0-1.931,2.914-3.5,6.508-3.5h15.33c3.6,0,6.513,1.565,6.519,3.5h0C237.457,74.142,234.538,75.71,230.938,75.71Z" transform="translate(24.855 11.989)" fill="#939598"/>
    <path id="Trazado_325" data-name="Trazado 325" d="M230.938,123.28h-15.33A9.984,9.984,0,0,1,211,122.254a3.035,3.035,0,0,1-1.9-2.477h0c0-1.931,2.914-3.5,6.508-3.5h15.33c3.6,0,6.513,1.565,6.519,3.5h0C237.457,121.712,234.538,123.28,230.938,123.28Z" transform="translate(24.855 20.273)" fill="#939598"/>
    <rect id="Rectángulo_362" data-name="Rectángulo 362" width="41.147" height="7" rx="3.5" transform="translate(221.154 165.085)" fill="#939598"/>
    <rect id="Rectángulo_363" data-name="Rectángulo 363" width="52.881" height="7" rx="3.5" transform="translate(109.176 108.62)" fill="#939598"/>
    <rect id="Rectángulo_364" data-name="Rectángulo 364" width="69.628" height="7" rx="3.5" transform="translate(109.176 165.085)" fill="#939598"/>
    <path id="Trazado_327" data-name="Trazado 327" d="M161.189,201.566H104.6a6.519,6.519,0,0,1-6.519-6.508h0a6.519,6.519,0,0,1,6.519-6.519h56.59a6.519,6.519,0,0,1,6.519,6.519h0A6.519,6.519,0,0,1,161.189,201.566Z" transform="translate(11.096 32.858)" fill="#939598"/>
    <rect id="Rectángulo_365" data-name="Rectángulo 365" width="45.486" height="7" rx="3.5" transform="translate(216.826 108.62)" fill="#939598"/>
  </g>
</svg>
